<?xml version="1.0" standalone="no"?>
<!DOCTYPE svg PUBLIC "-//W3C//DTD SVG 20010904//EN"
 "http://www.w3.org/TR/2001/REC-SVG-20010904/DTD/svg10.dtd">
<svg version="1.0" xmlns="http://www.w3.org/2000/svg"
 width="40.000000pt" height="40.000000pt" viewBox="0 0 512.000000 512.000000"
 preserveAspectRatio="xMidYMid meet">

<g transform="translate(0.000000,512.000000) scale(0.100000,-0.100000)"
fill="#ffffff" stroke="none">
<path d="M2079 4782 c-145 -48 -265 -157 -337 -304 -53 -110 -67 -171 -66
-303 2 -178 50 -343 167 -569 l64 -125 -51 30 c-160 95 -365 172 -521 196
-230 35 -422 -21 -579 -168 -139 -129 -190 -286 -155 -475 15 -82 62 -201 109
-273 l39 -61 -25 -37 c-74 -109 -122 -246 -131 -373 -10 -145 32 -260 132
-369 180 -194 448 -253 750 -166 44 13 81 22 83 21 1 -2 -28 -36 -64 -77 -189
-210 -332 -415 -435 -624 -110 -224 -163 -416 -175 -637 -7 -115 -7 -116 19
-142 33 -33 79 -35 111 -3 20 20 24 36 29 127 24 421 239 835 659 1265 l127
130 -44 -105 c-146 -349 -148 -605 -6 -822 88 -136 211 -224 346 -249 134 -25
311 14 456 102 l79 47 79 -47 c145 -88 321 -127 456 -102 271 50 476 354 450
666 -16 184 -96 411 -217 611 -18 32 -17 31 107 -33 396 -204 697 -223 945
-58 175 117 259 275 247 465 -9 127 -57 264 -131 373 l-25 37 39 61 c47 72 94
191 109 273 35 190 -16 345 -157 477 -156 146 -348 201 -577 166 -156 -24
-361 -101 -521 -196 l-51 -30 64 125 c118 229 166 392 167 574 0 93 -4 130
-23 190 -63 207 -210 362 -395 415 -129 37 -321 1 -480 -90 -44 -25 -82 -45
-86 -45 -4 0 -42 20 -86 45 -115 66 -217 97 -339 101 -78 3 -112 0 -156 -14z
m254 -158 c75 -19 175 -69 247 -123 31 -23 66 -41 80 -41 14 0 49 18 80 41
172 129 373 172 506 109 111 -53 213 -203 234 -345 41 -265 -144 -682 -467
-1053 -85 -97 -92 -125 -44 -173 52 -51 69 -44 227 89 346 293 747 463 995
424 147 -24 296 -125 348 -237 63 -133 19 -333 -108 -504 -23 -31 -41 -66 -41
-81 0 -15 18 -49 42 -80 54 -72 113 -199 129 -278 30 -158 -19 -277 -155 -373
-194 -137 -437 -124 -766 41 -175 88 -343 202 -503 342 -91 79 -120 86 -168
39 -48 -49 -41 -73 56 -186 268 -313 434 -641 460 -905 19 -194 -88 -407 -241
-477 -136 -62 -293 -33 -474 88 -48 32 -98 59 -110 59 -12 0 -62 -27 -110 -59
-181 -121 -338 -150 -474 -88 -112 52 -214 199 -237 342 -42 273 151 701 488
1078 63 71 68 103 24 148 -48 47 -76 40 -172 -42 -277 -239 -579 -407 -824
-459 -89 -19 -219 -17 -293 5 -167 48 -297 185 -309 327 -11 115 45 278 135
398 24 31 42 65 42 80 0 15 -18 50 -41 81 -127 171 -171 371 -108 504 52 112
201 213 348 237 232 37 589 -105 931 -371 47 -36 105 -84 130 -107 25 -23 55
-47 68 -53 32 -17 78 -5 102 26 36 47 27 73 -61 174 -320 370 -501 782 -459
1044 27 167 143 320 274 361 57 18 147 17 219 -2z"/>
</g>
</svg>
